<svg xmlns="http://www.w3.org/2000/svg" xmlns:xlink="http://www.w3.org/1999/xlink" width="1920" zoomAndPan="magnify" viewBox="0 0 1440 809.999993" height="1080" preserveAspectRatio="xMidYMid meet" version="1.0"><defs><clipPath id="id1"><path d="M 0 0 L 954 0 L 954 810 L 0 810 Z M 0 0 " clip-rule="nonzero"/></clipPath><clipPath id="id2"><path d="M 953.5625 0 L 953.5625 477.691406 C 953.5625 492.691406 941.636719 504.617188 926.636719 504.617188 C 911.636719 504.617188 899.714844 492.691406 899.714844 477.691406 L 899.714844 359.617188 C 899.714844 368.460938 892.40625 375.769531 883.558594 375.769531 C 874.710938 375.769531 867.402344 368.460938 867.402344 359.617188 L 867.402344 523.847656 C 867.402344 538.078125 855.863281 549.617188 841.632812 549.617188 C 827.402344 549.617188 815.863281 538.078125 815.863281 523.847656 L 815.863281 632.308594 C 815.863281 649.617188 802.015625 663.460938 784.707031 663.460938 C 767.398438 663.460938 753.550781 649.617188 753.550781 632.308594 L 753.550781 484.230469 C 753.550781 495.382812 744.320312 504.617188 733.167969 504.617188 C 722.011719 504.617188 712.78125 495.382812 712.78125 484.230469 L 712.78125 622.691406 C 712.78125 629.617188 707.011719 635.382812 700.085938 635.382812 C 693.164062 635.382812 687.394531 629.617188 687.394531 622.691406 L 687.394531 515.382812 C 687.394531 539.230469 668.164062 558.460938 644.316406 558.460938 C 620.46875 558.460938 601.238281 539.230469 601.238281 515.382812 L 601.238281 415.382812 C 601.238281 424.230469 593.929688 431.539062 585.082031 431.539062 C 576.234375 431.539062 568.925781 424.230469 568.925781 415.382812 L 568.925781 598.847656 C 568.925781 610.769531 559.3125 620.382812 547.386719 620.382812 C 535.464844 620.382812 525.847656 610.769531 525.847656 598.847656 L 525.847656 532.308594 C 525.847656 546.539062 514.308594 558.078125 500.078125 558.078125 C 485.847656 558.078125 474.308594 546.539062 474.308594 532.308594 L 474.308594 468.078125 C 474.308594 481.152344 463.921875 491.539062 450.84375 491.539062 C 437.765625 491.539062 427.382812 481.152344 427.382812 468.078125 L 427.382812 361.539062 C 427.382812 369.230469 421.226562 375.382812 413.535156 375.382812 C 405.84375 375.382812 399.6875 369.230469 399.6875 361.539062 L 399.6875 523.460938 C 399.6875 537.691406 388.148438 549.230469 373.917969 549.230469 C 359.6875 549.230469 348.148438 537.691406 348.148438 523.460938 L 348.148438 666.152344 C 348.148438 683.460938 334.300781 697.308594 316.992188 697.308594 C 299.683594 697.308594 285.835938 683.460938 285.835938 666.152344 L 285.835938 483.847656 C 285.835938 495 276.605469 504.230469 265.453125 504.230469 C 254.296875 504.230469 245.066406 495 245.066406 483.847656 L 245.066406 618.078125 C 245.066406 627.691406 237.371094 635.382812 227.757812 635.382812 C 218.140625 635.382812 210.449219 627.691406 210.449219 618.078125 L 210.449219 520.382812 C 210.449219 541.152344 193.523438 558.078125 172.753906 558.078125 C 151.984375 558.078125 135.058594 541.152344 135.058594 520.382812 L 135.058594 396.152344 C 135.058594 406.152344 126.984375 414.230469 116.980469 414.230469 C 106.980469 414.230469 98.90625 406.152344 98.90625 396.152344 L 98.90625 636.539062 C 98.90625 651.539062 86.980469 663.460938 71.980469 663.460938 C 56.980469 663.460938 45.054688 651.539062 45.054688 636.539062 L 45.054688 469.230469 C 45.054688 481.539062 35.054688 491.921875 22.363281 491.921875 C 10.054688 491.921875 -0.332031 481.921875 -0.332031 469.230469 L -0.332031 0 Z M 77.75 715 C 65.824219 715 56.210938 724.617188 56.210938 736.539062 C 56.210938 748.460938 65.824219 758.078125 77.75 758.078125 C 89.671875 758.078125 99.289062 748.460938 99.289062 736.539062 C 99.289062 724.617188 89.671875 715 77.75 715 Z M 228.140625 676.152344 C 218.527344 676.152344 210.832031 683.847656 210.832031 693.460938 C 210.832031 703.078125 218.527344 710.769531 228.140625 710.769531 C 237.757812 710.769531 245.449219 703.078125 245.449219 693.460938 C 245.066406 683.847656 237.371094 676.152344 228.140625 676.152344 Z M 302.375 736.152344 C 281.992188 736.152344 265.449219 752.691406 265.449219 773.078125 C 265.449219 793.460938 281.992188 810 302.375 810 C 322.761719 810 339.300781 793.460938 339.300781 773.078125 C 339.300781 752.691406 322.761719 736.152344 302.375 736.152344 Z M 453.539062 568.847656 C 439.304688 568.847656 427.765625 580.382812 427.765625 594.617188 C 427.765625 608.847656 439.304688 620.382812 453.539062 620.382812 C 467.769531 620.382812 479.308594 608.847656 479.308594 594.617188 C 479.308594 580.382812 467.769531 568.847656 453.539062 568.847656 Z M 539.3125 646.152344 C 526.234375 646.152344 515.847656 656.539062 515.847656 669.617188 C 515.847656 682.691406 526.234375 693.078125 539.3125 693.078125 C 552.386719 693.078125 562.773438 682.691406 562.773438 669.617188 C 562.773438 656.539062 552.386719 646.152344 539.3125 646.152344 Z M 778.554688 684.617188 C 758.550781 684.617188 742.011719 700.769531 742.011719 721.152344 C 742.011719 741.152344 758.167969 757.691406 778.554688 757.691406 C 798.554688 757.691406 815.09375 741.539062 815.09375 721.152344 C 814.707031 701.152344 798.554688 684.617188 778.554688 684.617188 Z M 880.480469 594.617188 C 873.558594 594.617188 867.789062 600.382812 867.789062 607.308594 C 867.789062 614.230469 873.558594 620 880.480469 620 C 887.40625 620 893.175781 614.230469 893.175781 607.308594 C 893.558594 600.382812 887.789062 594.617188 880.480469 594.617188 Z M 880.480469 594.617188 " clip-rule="nonzero"/></clipPath></defs><rect x="-144" width="1728" fill="rgb(100%, 100%, 100%)" y="-80.999999" height="971.999992" fill-opacity="1"/><rect x="-144" width="1728" fill="rgb(100%, 100%, 100%)" y="-80.999999" height="971.999992" fill-opacity="1"/><rect x="-144" width="1728" fill="rgb(100%, 100%, 100%)" y="-80.999999" height="971.999992" fill-opacity="1"/><g clip-path="url(#id1)"><g clip-path="url(#id2)"><path fill="rgb(32.199097%, 39.99939%, 85.099792%)" d="M 0 0 L 0 810 L 953.5625 810 L 953.5625 0 Z M 0 0 " fill-opacity="1" fill-rule="nonzero"/></g></g></svg>