<?xml version="1.0" standalone="no"?>
<!DOCTYPE svg PUBLIC "-//W3C//DTD SVG 20010904//EN"
 "http://www.w3.org/TR/2001/REC-SVG-20010904/DTD/svg10.dtd">
<svg version="1.0" xmlns="http://www.w3.org/2000/svg"
 width="50.000000pt" height="50.000000pt" viewBox="0 0 50.000000 50.000000"
 preserveAspectRatio="xMidYMid meet">
<metadata>
Created by potrace 1.16, written by Peter Selinger 2001-2019
</metadata>
<g transform="translate(0.000000,50.000000) scale(0.009766,-0.009766)"
fill="#000000" stroke="none">
<path d="M588 5104 c-109 -34 -215 -136 -258 -252 -20 -52 -24 -99 -43 -506
-22 -488 -22 -497 30 -600 30 -59 106 -137 162 -165 107 -55 251 -64 346 -22
l45 20 0 -377 0 -377 -40 -23 c-42 -24 -90 -86 -108 -141 -8 -23 -12 -143 -12
-376 l0 -341 -54 -17 c-110 -35 -221 -129 -280 -237 -61 -112 -59 -94 -63
-822 l-4 -668 -123 0 c-120 0 -124 -1 -150 -26 -37 -38 -37 -110 0 -148 l27
-26 2497 0 2497 0 27 26 c37 38 37 110 0 148 -27 26 -27 26 -190 26 l-163 0
-3 673 c-3 580 -6 678 -19 717 -58 166 -163 277 -311 332 l-58 21 0 312 c0
172 -5 337 -10 366 -14 73 -56 138 -112 174 l-47 30 0 377 -1 377 48 -22 c38
-18 66 -22 148 -22 96 0 103 2 176 38 78 38 152 106 185 171 28 54 43 129 43
216 0 133 -30 748 -39 816 -19 130 -109 250 -230 308 l-66 31 -1900 2 c-1627
1 -1907 0 -1947 -13z m282 -696 c0 -477 -2 -516 -19 -553 -62 -135 -243 -154
-330 -35 -17 23 -33 57 -37 76 -8 44 24 784 38 853 7 40 20 64 50 97 52 57 94
70 226 73 l72 1 0 -512z m618 -10 l-3 -523 -30 -44 c-76 -113 -231 -121 -322
-18 -18 20 -37 53 -42 74 -7 24 -11 219 -11 536 l0 497 205 0 206 0 -3 -522z
m622 25 c0 -317 -4 -512 -11 -536 -5 -21 -24 -54 -42 -74 -90 -102 -244 -95
-322 16 l-30 43 -3 524 -3 524 206 0 205 0 0 -497z m620 18 c0 -283 -4 -500
-10 -532 -37 -194 -299 -231 -381 -54 -17 37 -19 76 -19 553 l0 512 205 0 205
0 0 -479z m610 -33 c0 -477 -2 -516 -19 -553 -82 -177 -344 -140 -381 54 -6
32 -10 249 -10 532 l0 479 205 0 205 0 0 -512z m618 -5 c-3 -503 -4 -519 -24
-558 -45 -86 -156 -126 -248 -91 -54 21 -111 81 -125 133 -7 24 -11 216 -11
536 l0 497 205 0 206 0 -3 -517z m458 487 c47 -23 88 -73 103 -127 5 -17 17
-213 27 -436 19 -447 18 -458 -37 -522 -84 -96 -241 -80 -310 32 l-24 38 -3
524 -3 524 101 -6 c74 -4 111 -11 146 -27z m-2665 -1331 c142 -54 317 -25 421
69 l38 34 37 -32 c147 -129 394 -130 544 -2 l39 34 39 -34 c150 -128 397 -127
544 2 l37 32 38 -34 c104 -94 299 -126 427 -69 l45 20 0 -374 c0 -369 0 -374
-21 -385 -39 -21 -100 -84 -122 -124 -21 -40 -22 -54 -25 -393 l-3 -353 -609
0 -610 0 0 183 c0 211 -9 255 -68 332 -26 34 -57 60 -101 82 l-63 33 -544 0
-544 0 0 24 c0 66 -54 154 -121 198 l-49 31 0 372 0 371 73 -24 c130 -44 283
-18 392 67 l50 38 52 -39 c28 -22 75 -48 104 -59z m-748 -930 c12 -7 25 -17
29 -23 4 -6 8 -156 8 -333 l0 -323 -60 0 -60 0 0 323 c0 177 4 327 8 333 6 9
41 33 50 34 2 0 13 -5 25 -11z m3112 -30 c12 -23 15 -86 15 -339 l0 -310 -65
0 -65 0 0 323 c0 296 2 325 18 339 38 34 76 29 97 -13z m-2445 -439 l0 -210
-210 0 -210 0 0 210 0 210 210 0 210 0 0 -210z m646 192 c40 -32 44 -55 44
-231 l0 -171 -240 0 -240 0 0 210 0 210 208 0 c181 0 210 -3 228 -18z m-1156
-1382 l0 -770 -320 0 -321 0 4 652 c2 518 6 661 16 690 25 67 82 130 150 165
l63 33 204 0 204 0 0 -770z m2512 705 c5 -86 34 -118 103 -118 70 0 98 32 103
118 l4 66 212 -3 c202 -3 213 -4 259 -28 58 -29 112 -86 141 -149 21 -45 21
-56 24 -703 l3 -658 -320 0 -320 0 -3 311 -3 311 -33 29 c-51 45 -122 36 -155
-21 -15 -25 -17 -66 -17 -329 l0 -301 -1150 0 -1150 0 0 770 0 770 1149 0
1149 0 4 -65z"/>
<path d="M3721 1306 c-57 -31 -67 -107 -22 -158 25 -28 36 -33 76 -33 40 0 51
5 76 33 80 89 -25 216 -130 158z"/>
</g>
</svg>
